<?xml version="1.0" encoding="utf-8"?>
<!-- Generator: Adobe Illustrator 17.0.0, SVG Export Plug-In . SVG Version: 6.00 Build 0)  -->
<!DOCTYPE svg PUBLIC "-//W3C//DTD SVG 1.1//EN" "http://www.w3.org/Graphics/SVG/1.1/DTD/svg11.dtd">
<svg version="1.1" id="Layer_1" xmlns="http://www.w3.org/2000/svg" xmlns:xlink="http://www.w3.org/1999/xlink" x="0px" y="0px"
	 width="500px" height="500px" viewBox="0 0 500 500" enable-background="new 0 0 500 500" xml:space="preserve">
<g>
	<path fill="#FFFFFF" d="M106.3,280.4v199.1c4.7,0.7,9.5,1,14.4,1H135V279.3h-14.4C115.8,279.3,111,279.7,106.3,280.4z M364.9,279.3
		v201.2h14.4c4.9,0,9.7-0.4,14.4-1V280.4c-4.7-0.7-9.5-1-14.4-1H364.9z M479.9,250.6c0-127-102.9-229.9-229.9-229.9
		c-127,0-229.9,102.9-229.9,229.9c0,27.6,4.9,54,13.8,78.5c-8.7,14.9-13.8,32.3-13.8,50.8c0,40.1,23.5,74.7,57.5,90.9V289
		c-9,4.3-17.3,9.9-24.6,16.6c-2.7-13.1-4.1-26.7-4.1-40.6c0-111.1,90.1-201.2,201.2-201.2c111.1,0,201.2,90.1,201.2,201.2
		c0,13.9-1.4,27.5-4.1,40.6c-7.3-6.7-15.6-12.3-24.6-16.6v181.8c34-16.1,57.5-50.8,57.5-90.9c0-18.5-5-35.9-13.8-50.8
		C475,304.6,479.9,278.2,479.9,250.6z"/>
	<path fill="#FFFFFF" d="M179.9,390.6v-39.4c0-5.4-4.4-9.9-9.9-9.9c-5.4,0-9.9,4.4-9.9,9.9v39.4c0,5.4,4.4,9.9,9.9,9.9
		C175.5,400.4,179.9,396,179.9,390.6z"/>
	<path fill="#FFFFFF" d="M211.6,431.6v-115c0-5.4-4.4-9.9-9.9-9.9c-5.4,0-9.9,4.4-9.9,9.9v115c0,5.4,4.4,9.9,9.9,9.9
		C207.2,441.5,211.6,437.1,211.6,431.6z"/>
	<path fill="#FFFFFF" d="M243.4,414.6v-63.5c0-5.4-4.4-9.9-9.9-9.9c-5.4,0-9.9,4.4-9.9,9.9v63.5c0,5.4,4.4,9.9,9.9,9.9
		C239,424.5,243.4,420.1,243.4,414.6z"/>
	<path fill="#FFFFFF" d="M329.9,361c-5.4,0-9.9,4.4-9.9,9.9v54.8c0,5.4,4.4,9.9,9.9,9.9c5.4,0,9.9-4.4,9.9-9.9v-54.8
		C339.8,365.4,335.3,361,329.9,361z"/>
	<path fill="#FFFFFF" d="M298.1,292c-5.4,0-9.9,4.4-9.9,9.9v149.5c0,5.4,4.4,9.9,9.9,9.9c5.4,0,9.9-4.4,9.9-9.9V301.9
		C308,296.4,303.6,292,298.1,292z"/>
	<path fill="#FFFFFF" d="M266.4,435.5c5.4,0,9.9-4.4,9.9-9.9v-95c0-5.4-4.4-9.9-9.9-9.9c-5.4,0-9.9,4.4-9.9,9.9v95
		C256.5,431,260.9,435.5,266.4,435.5z"/>
</g>
</svg>
